<mxfile host="app.diagrams.net" modified="2023-12-06T10:15:05.325Z" agent="Mozilla/5.0 (Windows NT 10.0; Win64; x64) AppleWebKit/537.36 (KHTML, like Gecko) Chrome/119.0.0.0 Safari/537.36" etag="qeuPSeoE8VSaPqX0TPJE" version="22.1.5" type="github">
  <diagram name="페이지-1" id="oKlgk6AXWcIwoFXsYR7O">
    <mxGraphModel dx="1195" dy="652" grid="1" gridSize="10" guides="1" tooltips="1" connect="1" arrows="1" fold="1" page="1" pageScale="1" pageWidth="1600" pageHeight="1200" math="0" shadow="0">
      <root>
        <mxCell id="0" />
        <mxCell id="1" parent="0" />
        <mxCell id="S4B36le7CsYAlRwGV8nf-9" style="edgeStyle=orthogonalEdgeStyle;rounded=0;orthogonalLoop=1;jettySize=auto;html=1;entryX=0;entryY=0.5;entryDx=0;entryDy=0;" edge="1" parent="1" target="S4B36le7CsYAlRwGV8nf-4">
          <mxGeometry relative="1" as="geometry">
            <mxPoint x="45" y="252.5000000000001" as="sourcePoint" />
          </mxGeometry>
        </mxCell>
        <mxCell id="S4B36le7CsYAlRwGV8nf-10" style="edgeStyle=orthogonalEdgeStyle;rounded=0;orthogonalLoop=1;jettySize=auto;html=1;" edge="1" parent="1" target="S4B36le7CsYAlRwGV8nf-5">
          <mxGeometry relative="1" as="geometry">
            <mxPoint x="45" y="252.4999999999999" as="sourcePoint" />
          </mxGeometry>
        </mxCell>
        <mxCell id="S4B36le7CsYAlRwGV8nf-11" style="edgeStyle=orthogonalEdgeStyle;rounded=0;orthogonalLoop=1;jettySize=auto;html=1;entryX=0;entryY=0.5;entryDx=0;entryDy=0;" edge="1" parent="1" target="S4B36le7CsYAlRwGV8nf-6">
          <mxGeometry relative="1" as="geometry">
            <mxPoint x="45" y="252.5000000000001" as="sourcePoint" />
          </mxGeometry>
        </mxCell>
        <mxCell id="S4B36le7CsYAlRwGV8nf-4" value="같은 학교끼리" style="rounded=0;whiteSpace=wrap;html=1;" vertex="1" parent="1">
          <mxGeometry x="100" y="215" width="120" height="25" as="geometry" />
        </mxCell>
        <mxCell id="S4B36le7CsYAlRwGV8nf-5" value="같은 학년끼리" style="rounded=0;whiteSpace=wrap;html=1;" vertex="1" parent="1">
          <mxGeometry x="100" y="240" width="120" height="25" as="geometry" />
        </mxCell>
        <mxCell id="S4B36le7CsYAlRwGV8nf-6" value="임의 모임" style="rounded=0;whiteSpace=wrap;html=1;" vertex="1" parent="1">
          <mxGeometry x="100" y="265" width="120" height="25" as="geometry" />
        </mxCell>
        <mxCell id="S4B36le7CsYAlRwGV8nf-45" style="edgeStyle=orthogonalEdgeStyle;rounded=0;orthogonalLoop=1;jettySize=auto;html=1;" edge="1" parent="1" source="S4B36le7CsYAlRwGV8nf-7" target="S4B36le7CsYAlRwGV8nf-8">
          <mxGeometry relative="1" as="geometry" />
        </mxCell>
        <mxCell id="S4B36le7CsYAlRwGV8nf-229" style="edgeStyle=orthogonalEdgeStyle;rounded=0;orthogonalLoop=1;jettySize=auto;html=1;exitX=0;exitY=0;exitDx=55;exitDy=130;exitPerimeter=0;" edge="1" parent="1" source="S4B36le7CsYAlRwGV8nf-7" target="S4B36le7CsYAlRwGV8nf-225">
          <mxGeometry relative="1" as="geometry">
            <mxPoint x="340" y="1015.8333333333334" as="targetPoint" />
            <Array as="points">
              <mxPoint x="435" y="420" />
              <mxPoint x="320" y="420" />
              <mxPoint x="320" y="980" />
              <mxPoint x="1176" y="980" />
            </Array>
          </mxGeometry>
        </mxCell>
        <mxCell id="S4B36le7CsYAlRwGV8nf-7" value="SERVER" style="shape=cube;whiteSpace=wrap;html=1;boundedLbl=1;backgroundOutline=1;darkOpacity=0.05;darkOpacity2=0.1;" vertex="1" parent="1">
          <mxGeometry x="380" y="187.5" width="90" height="130" as="geometry" />
        </mxCell>
        <mxCell id="S4B36le7CsYAlRwGV8nf-158" style="edgeStyle=orthogonalEdgeStyle;rounded=0;orthogonalLoop=1;jettySize=auto;html=1;entryX=0.5;entryY=0;entryDx=0;entryDy=0;" edge="1" parent="1" source="S4B36le7CsYAlRwGV8nf-8" target="S4B36le7CsYAlRwGV8nf-141">
          <mxGeometry relative="1" as="geometry">
            <Array as="points">
              <mxPoint x="625" y="70" />
              <mxPoint x="1027" y="70" />
            </Array>
          </mxGeometry>
        </mxCell>
        <mxCell id="S4B36le7CsYAlRwGV8nf-160" style="edgeStyle=orthogonalEdgeStyle;rounded=0;orthogonalLoop=1;jettySize=auto;html=1;entryX=0.25;entryY=0;entryDx=0;entryDy=0;" edge="1" parent="1" source="S4B36le7CsYAlRwGV8nf-8" target="S4B36le7CsYAlRwGV8nf-102">
          <mxGeometry relative="1" as="geometry" />
        </mxCell>
        <mxCell id="S4B36le7CsYAlRwGV8nf-8" value="DB" style="shape=cylinder3;whiteSpace=wrap;html=1;boundedLbl=1;backgroundOutline=1;size=15;" vertex="1" parent="1">
          <mxGeometry x="595" y="212.5" width="60" height="80" as="geometry" />
        </mxCell>
        <mxCell id="S4B36le7CsYAlRwGV8nf-64" style="edgeStyle=orthogonalEdgeStyle;rounded=0;orthogonalLoop=1;jettySize=auto;html=1;" edge="1" parent="1" source="S4B36le7CsYAlRwGV8nf-12" target="S4B36le7CsYAlRwGV8nf-63">
          <mxGeometry relative="1" as="geometry" />
        </mxCell>
        <mxCell id="S4B36le7CsYAlRwGV8nf-12" value="학교 게임 포트" style="swimlane;fontStyle=0;childLayout=stackLayout;horizontal=1;startSize=30;horizontalStack=0;resizeParent=1;resizeParentMax=0;resizeLast=0;collapsible=1;marginBottom=0;whiteSpace=wrap;html=1;fontSize=8;" vertex="1" parent="1">
          <mxGeometry x="570" y="330" width="85" height="120" as="geometry" />
        </mxCell>
        <mxCell id="S4B36le7CsYAlRwGV8nf-15" value="포트" style="text;strokeColor=none;fillColor=none;align=left;verticalAlign=middle;spacingLeft=4;spacingRight=4;overflow=hidden;points=[[0,0.5],[1,0.5]];portConstraint=eastwest;rotatable=0;whiteSpace=wrap;html=1;fontSize=8;" vertex="1" parent="S4B36le7CsYAlRwGV8nf-12">
          <mxGeometry y="30" width="85" height="30" as="geometry" />
        </mxCell>
        <mxCell id="S4B36le7CsYAlRwGV8nf-13" value="학교명" style="text;strokeColor=none;fillColor=none;align=left;verticalAlign=middle;spacingLeft=4;spacingRight=4;overflow=hidden;points=[[0,0.5],[1,0.5]];portConstraint=eastwest;rotatable=0;whiteSpace=wrap;html=1;fontSize=8;" vertex="1" parent="S4B36le7CsYAlRwGV8nf-12">
          <mxGeometry y="60" width="85" height="30" as="geometry" />
        </mxCell>
        <mxCell id="S4B36le7CsYAlRwGV8nf-14" value="현재인원" style="text;strokeColor=none;fillColor=none;align=left;verticalAlign=middle;spacingLeft=4;spacingRight=4;overflow=hidden;points=[[0,0.5],[1,0.5]];portConstraint=eastwest;rotatable=0;whiteSpace=wrap;html=1;fontSize=8;" vertex="1" parent="S4B36le7CsYAlRwGV8nf-12">
          <mxGeometry y="90" width="85" height="30" as="geometry" />
        </mxCell>
        <mxCell id="S4B36le7CsYAlRwGV8nf-20" value="학년 게임 포트" style="swimlane;fontStyle=0;childLayout=stackLayout;horizontal=1;startSize=30;horizontalStack=0;resizeParent=1;resizeParentMax=0;resizeLast=0;collapsible=1;marginBottom=0;whiteSpace=wrap;html=1;fontSize=8;" vertex="1" parent="1">
          <mxGeometry x="655" y="330" width="85" height="90" as="geometry" />
        </mxCell>
        <mxCell id="S4B36le7CsYAlRwGV8nf-21" value="포트" style="text;strokeColor=none;fillColor=none;align=left;verticalAlign=middle;spacingLeft=4;spacingRight=4;overflow=hidden;points=[[0,0.5],[1,0.5]];portConstraint=eastwest;rotatable=0;whiteSpace=wrap;html=1;fontSize=8;" vertex="1" parent="S4B36le7CsYAlRwGV8nf-20">
          <mxGeometry y="30" width="85" height="30" as="geometry" />
        </mxCell>
        <mxCell id="S4B36le7CsYAlRwGV8nf-22" value="현재 인원" style="text;strokeColor=none;fillColor=none;align=left;verticalAlign=middle;spacingLeft=4;spacingRight=4;overflow=hidden;points=[[0,0.5],[1,0.5]];portConstraint=eastwest;rotatable=0;whiteSpace=wrap;html=1;fontSize=8;" vertex="1" parent="S4B36le7CsYAlRwGV8nf-20">
          <mxGeometry y="60" width="85" height="30" as="geometry" />
        </mxCell>
        <mxCell id="S4B36le7CsYAlRwGV8nf-24" value="임의 게임 포트" style="swimlane;fontStyle=0;childLayout=stackLayout;horizontal=1;startSize=30;horizontalStack=0;resizeParent=1;resizeParentMax=0;resizeLast=0;collapsible=1;marginBottom=0;whiteSpace=wrap;html=1;fontSize=8;" vertex="1" parent="1">
          <mxGeometry x="740" y="330" width="85" height="90" as="geometry" />
        </mxCell>
        <mxCell id="S4B36le7CsYAlRwGV8nf-25" value="포트" style="text;strokeColor=none;fillColor=none;align=left;verticalAlign=middle;spacingLeft=4;spacingRight=4;overflow=hidden;points=[[0,0.5],[1,0.5]];portConstraint=eastwest;rotatable=0;whiteSpace=wrap;html=1;fontSize=8;" vertex="1" parent="S4B36le7CsYAlRwGV8nf-24">
          <mxGeometry y="30" width="85" height="30" as="geometry" />
        </mxCell>
        <mxCell id="S4B36le7CsYAlRwGV8nf-26" value="현재 인원" style="text;strokeColor=none;fillColor=none;align=left;verticalAlign=middle;spacingLeft=4;spacingRight=4;overflow=hidden;points=[[0,0.5],[1,0.5]];portConstraint=eastwest;rotatable=0;whiteSpace=wrap;html=1;fontSize=8;" vertex="1" parent="S4B36le7CsYAlRwGV8nf-24">
          <mxGeometry y="60" width="85" height="30" as="geometry" />
        </mxCell>
        <mxCell id="S4B36le7CsYAlRwGV8nf-90" style="edgeStyle=orthogonalEdgeStyle;rounded=0;orthogonalLoop=1;jettySize=auto;html=1;entryX=0;entryY=0.75;entryDx=0;entryDy=0;" edge="1" parent="1" source="S4B36le7CsYAlRwGV8nf-30" target="S4B36le7CsYAlRwGV8nf-88">
          <mxGeometry relative="1" as="geometry">
            <Array as="points">
              <mxPoint x="493" y="900" />
              <mxPoint x="870" y="900" />
              <mxPoint x="870" y="535" />
            </Array>
          </mxGeometry>
        </mxCell>
        <mxCell id="S4B36le7CsYAlRwGV8nf-30" value="학교 게임 포트" style="shape=table;startSize=30;container=1;collapsible=0;childLayout=tableLayout;strokeColor=default;fontSize=10;" vertex="1" parent="1">
          <mxGeometry x="402.5" y="640" width="180" height="150" as="geometry" />
        </mxCell>
        <mxCell id="S4B36le7CsYAlRwGV8nf-31" value="" style="shape=tableRow;horizontal=0;startSize=0;swimlaneHead=0;swimlaneBody=0;strokeColor=inherit;top=0;left=0;bottom=0;right=0;collapsible=0;dropTarget=0;fillColor=none;points=[[0,0.5],[1,0.5]];portConstraint=eastwest;fontSize=10;" vertex="1" parent="S4B36le7CsYAlRwGV8nf-30">
          <mxGeometry y="30" width="180" height="40" as="geometry" />
        </mxCell>
        <mxCell id="S4B36le7CsYAlRwGV8nf-32" value="포트" style="shape=partialRectangle;html=1;whiteSpace=wrap;connectable=0;strokeColor=inherit;overflow=hidden;fillColor=none;top=0;left=0;bottom=0;right=0;pointerEvents=1;fontSize=10;" vertex="1" parent="S4B36le7CsYAlRwGV8nf-31">
          <mxGeometry width="60" height="40" as="geometry">
            <mxRectangle width="60" height="40" as="alternateBounds" />
          </mxGeometry>
        </mxCell>
        <mxCell id="S4B36le7CsYAlRwGV8nf-33" value="학교명" style="shape=partialRectangle;html=1;whiteSpace=wrap;connectable=0;strokeColor=inherit;overflow=hidden;fillColor=none;top=0;left=0;bottom=0;right=0;pointerEvents=1;fontSize=10;" vertex="1" parent="S4B36le7CsYAlRwGV8nf-31">
          <mxGeometry x="60" width="60" height="40" as="geometry">
            <mxRectangle width="60" height="40" as="alternateBounds" />
          </mxGeometry>
        </mxCell>
        <mxCell id="S4B36le7CsYAlRwGV8nf-34" value="현재인원" style="shape=partialRectangle;html=1;whiteSpace=wrap;connectable=0;strokeColor=inherit;overflow=hidden;fillColor=none;top=0;left=0;bottom=0;right=0;pointerEvents=1;fontSize=10;" vertex="1" parent="S4B36le7CsYAlRwGV8nf-31">
          <mxGeometry x="120" width="60" height="40" as="geometry">
            <mxRectangle width="60" height="40" as="alternateBounds" />
          </mxGeometry>
        </mxCell>
        <mxCell id="S4B36le7CsYAlRwGV8nf-35" value="" style="shape=tableRow;horizontal=0;startSize=0;swimlaneHead=0;swimlaneBody=0;strokeColor=inherit;top=0;left=0;bottom=0;right=0;collapsible=0;dropTarget=0;fillColor=none;points=[[0,0.5],[1,0.5]];portConstraint=eastwest;fontSize=10;" vertex="1" parent="S4B36le7CsYAlRwGV8nf-30">
          <mxGeometry y="70" width="180" height="40" as="geometry" />
        </mxCell>
        <mxCell id="S4B36le7CsYAlRwGV8nf-36" value="2000" style="shape=partialRectangle;html=1;whiteSpace=wrap;connectable=0;strokeColor=inherit;overflow=hidden;fillColor=none;top=0;left=0;bottom=0;right=0;pointerEvents=1;fontSize=10;" vertex="1" parent="S4B36le7CsYAlRwGV8nf-35">
          <mxGeometry width="60" height="40" as="geometry">
            <mxRectangle width="60" height="40" as="alternateBounds" />
          </mxGeometry>
        </mxCell>
        <mxCell id="S4B36le7CsYAlRwGV8nf-37" value="길산초" style="shape=partialRectangle;html=1;whiteSpace=wrap;connectable=0;strokeColor=inherit;overflow=hidden;fillColor=none;top=0;left=0;bottom=0;right=0;pointerEvents=1;fontSize=10;" vertex="1" parent="S4B36le7CsYAlRwGV8nf-35">
          <mxGeometry x="60" width="60" height="40" as="geometry">
            <mxRectangle width="60" height="40" as="alternateBounds" />
          </mxGeometry>
        </mxCell>
        <mxCell id="S4B36le7CsYAlRwGV8nf-38" value="105" style="shape=partialRectangle;html=1;whiteSpace=wrap;connectable=0;strokeColor=inherit;overflow=hidden;fillColor=none;top=0;left=0;bottom=0;right=0;pointerEvents=1;fontSize=10;" vertex="1" parent="S4B36le7CsYAlRwGV8nf-35">
          <mxGeometry x="120" width="60" height="40" as="geometry">
            <mxRectangle width="60" height="40" as="alternateBounds" />
          </mxGeometry>
        </mxCell>
        <mxCell id="S4B36le7CsYAlRwGV8nf-39" value="" style="shape=tableRow;horizontal=0;startSize=0;swimlaneHead=0;swimlaneBody=0;strokeColor=inherit;top=0;left=0;bottom=0;right=0;collapsible=0;dropTarget=0;fillColor=none;points=[[0,0.5],[1,0.5]];portConstraint=eastwest;fontSize=10;" vertex="1" parent="S4B36le7CsYAlRwGV8nf-30">
          <mxGeometry y="110" width="180" height="40" as="geometry" />
        </mxCell>
        <mxCell id="S4B36le7CsYAlRwGV8nf-40" value="2001" style="shape=partialRectangle;html=1;whiteSpace=wrap;connectable=0;strokeColor=inherit;overflow=hidden;fillColor=none;top=0;left=0;bottom=0;right=0;pointerEvents=1;fontSize=10;" vertex="1" parent="S4B36le7CsYAlRwGV8nf-39">
          <mxGeometry width="60" height="40" as="geometry">
            <mxRectangle width="60" height="40" as="alternateBounds" />
          </mxGeometry>
        </mxCell>
        <mxCell id="S4B36le7CsYAlRwGV8nf-41" value="서정초" style="shape=partialRectangle;html=1;whiteSpace=wrap;connectable=0;strokeColor=inherit;overflow=hidden;fillColor=none;top=0;left=0;bottom=0;right=0;pointerEvents=1;fontSize=10;" vertex="1" parent="S4B36le7CsYAlRwGV8nf-39">
          <mxGeometry x="60" width="60" height="40" as="geometry">
            <mxRectangle width="60" height="40" as="alternateBounds" />
          </mxGeometry>
        </mxCell>
        <mxCell id="S4B36le7CsYAlRwGV8nf-42" value="97" style="shape=partialRectangle;html=1;whiteSpace=wrap;connectable=0;strokeColor=inherit;overflow=hidden;fillColor=none;top=0;left=0;bottom=0;right=0;pointerEvents=1;fontSize=10;" vertex="1" parent="S4B36le7CsYAlRwGV8nf-39">
          <mxGeometry x="120" width="60" height="40" as="geometry">
            <mxRectangle width="60" height="40" as="alternateBounds" />
          </mxGeometry>
        </mxCell>
        <mxCell id="S4B36le7CsYAlRwGV8nf-44" style="edgeStyle=orthogonalEdgeStyle;rounded=0;orthogonalLoop=1;jettySize=auto;html=1;entryX=0.028;entryY=0.581;entryDx=0;entryDy=0;entryPerimeter=0;" edge="1" parent="1" source="S4B36le7CsYAlRwGV8nf-85" target="S4B36le7CsYAlRwGV8nf-7">
          <mxGeometry relative="1" as="geometry" />
        </mxCell>
        <mxCell id="S4B36le7CsYAlRwGV8nf-47" style="edgeStyle=orthogonalEdgeStyle;rounded=0;orthogonalLoop=1;jettySize=auto;html=1;entryX=0.647;entryY=-0.01;entryDx=0;entryDy=0;entryPerimeter=0;" edge="1" parent="1" source="S4B36le7CsYAlRwGV8nf-8" target="S4B36le7CsYAlRwGV8nf-12">
          <mxGeometry relative="1" as="geometry" />
        </mxCell>
        <mxCell id="S4B36le7CsYAlRwGV8nf-48" value="학교 게임 포트" style="shape=table;startSize=30;container=1;collapsible=0;childLayout=tableLayout;strokeColor=default;fontSize=10;" vertex="1" parent="1">
          <mxGeometry x="642.5" y="640" width="180" height="190" as="geometry" />
        </mxCell>
        <mxCell id="S4B36le7CsYAlRwGV8nf-49" value="" style="shape=tableRow;horizontal=0;startSize=0;swimlaneHead=0;swimlaneBody=0;strokeColor=inherit;top=0;left=0;bottom=0;right=0;collapsible=0;dropTarget=0;fillColor=none;points=[[0,0.5],[1,0.5]];portConstraint=eastwest;fontSize=10;" vertex="1" parent="S4B36le7CsYAlRwGV8nf-48">
          <mxGeometry y="30" width="180" height="40" as="geometry" />
        </mxCell>
        <mxCell id="S4B36le7CsYAlRwGV8nf-50" value="포트" style="shape=partialRectangle;html=1;whiteSpace=wrap;connectable=0;strokeColor=inherit;overflow=hidden;fillColor=none;top=0;left=0;bottom=0;right=0;pointerEvents=1;fontSize=10;" vertex="1" parent="S4B36le7CsYAlRwGV8nf-49">
          <mxGeometry width="60" height="40" as="geometry">
            <mxRectangle width="60" height="40" as="alternateBounds" />
          </mxGeometry>
        </mxCell>
        <mxCell id="S4B36le7CsYAlRwGV8nf-51" value="학교명" style="shape=partialRectangle;html=1;whiteSpace=wrap;connectable=0;strokeColor=inherit;overflow=hidden;fillColor=none;top=0;left=0;bottom=0;right=0;pointerEvents=1;fontSize=10;" vertex="1" parent="S4B36le7CsYAlRwGV8nf-49">
          <mxGeometry x="60" width="60" height="40" as="geometry">
            <mxRectangle width="60" height="40" as="alternateBounds" />
          </mxGeometry>
        </mxCell>
        <mxCell id="S4B36le7CsYAlRwGV8nf-52" value="현재인원" style="shape=partialRectangle;html=1;whiteSpace=wrap;connectable=0;strokeColor=inherit;overflow=hidden;fillColor=none;top=0;left=0;bottom=0;right=0;pointerEvents=1;fontSize=10;" vertex="1" parent="S4B36le7CsYAlRwGV8nf-49">
          <mxGeometry x="120" width="60" height="40" as="geometry">
            <mxRectangle width="60" height="40" as="alternateBounds" />
          </mxGeometry>
        </mxCell>
        <mxCell id="S4B36le7CsYAlRwGV8nf-53" value="" style="shape=tableRow;horizontal=0;startSize=0;swimlaneHead=0;swimlaneBody=0;strokeColor=inherit;top=0;left=0;bottom=0;right=0;collapsible=0;dropTarget=0;fillColor=none;points=[[0,0.5],[1,0.5]];portConstraint=eastwest;fontSize=10;" vertex="1" parent="S4B36le7CsYAlRwGV8nf-48">
          <mxGeometry y="70" width="180" height="40" as="geometry" />
        </mxCell>
        <mxCell id="S4B36le7CsYAlRwGV8nf-54" value="2000" style="shape=partialRectangle;html=1;whiteSpace=wrap;connectable=0;strokeColor=inherit;overflow=hidden;fillColor=none;top=0;left=0;bottom=0;right=0;pointerEvents=1;fontSize=10;" vertex="1" parent="S4B36le7CsYAlRwGV8nf-53">
          <mxGeometry width="60" height="40" as="geometry">
            <mxRectangle width="60" height="40" as="alternateBounds" />
          </mxGeometry>
        </mxCell>
        <mxCell id="S4B36le7CsYAlRwGV8nf-55" value="길산초" style="shape=partialRectangle;html=1;whiteSpace=wrap;connectable=0;strokeColor=inherit;overflow=hidden;fillColor=none;top=0;left=0;bottom=0;right=0;pointerEvents=1;fontSize=10;" vertex="1" parent="S4B36le7CsYAlRwGV8nf-53">
          <mxGeometry x="60" width="60" height="40" as="geometry">
            <mxRectangle width="60" height="40" as="alternateBounds" />
          </mxGeometry>
        </mxCell>
        <mxCell id="S4B36le7CsYAlRwGV8nf-56" value="105" style="shape=partialRectangle;html=1;whiteSpace=wrap;connectable=0;strokeColor=inherit;overflow=hidden;fillColor=none;top=0;left=0;bottom=0;right=0;pointerEvents=1;fontSize=10;" vertex="1" parent="S4B36le7CsYAlRwGV8nf-53">
          <mxGeometry x="120" width="60" height="40" as="geometry">
            <mxRectangle width="60" height="40" as="alternateBounds" />
          </mxGeometry>
        </mxCell>
        <mxCell id="S4B36le7CsYAlRwGV8nf-57" value="" style="shape=tableRow;horizontal=0;startSize=0;swimlaneHead=0;swimlaneBody=0;strokeColor=inherit;top=0;left=0;bottom=0;right=0;collapsible=0;dropTarget=0;fillColor=none;points=[[0,0.5],[1,0.5]];portConstraint=eastwest;fontSize=10;" vertex="1" parent="S4B36le7CsYAlRwGV8nf-48">
          <mxGeometry y="110" width="180" height="40" as="geometry" />
        </mxCell>
        <mxCell id="S4B36le7CsYAlRwGV8nf-58" value="2001" style="shape=partialRectangle;html=1;whiteSpace=wrap;connectable=0;strokeColor=inherit;overflow=hidden;fillColor=none;top=0;left=0;bottom=0;right=0;pointerEvents=1;fontSize=10;" vertex="1" parent="S4B36le7CsYAlRwGV8nf-57">
          <mxGeometry width="60" height="40" as="geometry">
            <mxRectangle width="60" height="40" as="alternateBounds" />
          </mxGeometry>
        </mxCell>
        <mxCell id="S4B36le7CsYAlRwGV8nf-59" value="서정초" style="shape=partialRectangle;html=1;whiteSpace=wrap;connectable=0;strokeColor=inherit;overflow=hidden;fillColor=none;top=0;left=0;bottom=0;right=0;pointerEvents=1;fontSize=10;" vertex="1" parent="S4B36le7CsYAlRwGV8nf-57">
          <mxGeometry x="60" width="60" height="40" as="geometry">
            <mxRectangle width="60" height="40" as="alternateBounds" />
          </mxGeometry>
        </mxCell>
        <mxCell id="S4B36le7CsYAlRwGV8nf-60" value="1 / 3" style="shape=partialRectangle;html=1;whiteSpace=wrap;connectable=0;strokeColor=inherit;overflow=hidden;fillColor=none;top=0;left=0;bottom=0;right=0;pointerEvents=1;fontSize=10;" vertex="1" parent="S4B36le7CsYAlRwGV8nf-57">
          <mxGeometry x="120" width="60" height="40" as="geometry">
            <mxRectangle width="60" height="40" as="alternateBounds" />
          </mxGeometry>
        </mxCell>
        <mxCell id="S4B36le7CsYAlRwGV8nf-79" value="" style="shape=tableRow;horizontal=0;startSize=0;swimlaneHead=0;swimlaneBody=0;strokeColor=inherit;top=0;left=0;bottom=0;right=0;collapsible=0;dropTarget=0;fillColor=none;points=[[0,0.5],[1,0.5]];portConstraint=eastwest;fontSize=10;" vertex="1" parent="S4B36le7CsYAlRwGV8nf-48">
          <mxGeometry y="150" width="180" height="40" as="geometry" />
        </mxCell>
        <mxCell id="S4B36le7CsYAlRwGV8nf-80" value="2002" style="shape=partialRectangle;html=1;whiteSpace=wrap;connectable=0;strokeColor=inherit;overflow=hidden;fillColor=none;top=0;left=0;bottom=0;right=0;pointerEvents=1;fontSize=10;" vertex="1" parent="S4B36le7CsYAlRwGV8nf-79">
          <mxGeometry width="60" height="40" as="geometry">
            <mxRectangle width="60" height="40" as="alternateBounds" />
          </mxGeometry>
        </mxCell>
        <mxCell id="S4B36le7CsYAlRwGV8nf-81" value="학산초" style="shape=partialRectangle;html=1;whiteSpace=wrap;connectable=0;strokeColor=inherit;overflow=hidden;fillColor=none;top=0;left=0;bottom=0;right=0;pointerEvents=1;fontSize=10;" vertex="1" parent="S4B36le7CsYAlRwGV8nf-79">
          <mxGeometry x="60" width="60" height="40" as="geometry">
            <mxRectangle width="60" height="40" as="alternateBounds" />
          </mxGeometry>
        </mxCell>
        <mxCell id="S4B36le7CsYAlRwGV8nf-82" value="2 / 2" style="shape=partialRectangle;html=1;whiteSpace=wrap;connectable=0;strokeColor=inherit;overflow=hidden;fillColor=none;top=0;left=0;bottom=0;right=0;pointerEvents=1;fontSize=10;" vertex="1" parent="S4B36le7CsYAlRwGV8nf-79">
          <mxGeometry x="120" width="60" height="40" as="geometry">
            <mxRectangle width="60" height="40" as="alternateBounds" />
          </mxGeometry>
        </mxCell>
        <mxCell id="S4B36le7CsYAlRwGV8nf-65" style="edgeStyle=orthogonalEdgeStyle;rounded=0;orthogonalLoop=1;jettySize=auto;html=1;entryX=0.5;entryY=0;entryDx=0;entryDy=0;" edge="1" parent="1" source="S4B36le7CsYAlRwGV8nf-70" target="S4B36le7CsYAlRwGV8nf-48">
          <mxGeometry relative="1" as="geometry" />
        </mxCell>
        <mxCell id="S4B36le7CsYAlRwGV8nf-66" style="edgeStyle=orthogonalEdgeStyle;rounded=0;orthogonalLoop=1;jettySize=auto;html=1;" edge="1" parent="1" source="S4B36le7CsYAlRwGV8nf-67" target="S4B36le7CsYAlRwGV8nf-30">
          <mxGeometry relative="1" as="geometry" />
        </mxCell>
        <mxCell id="S4B36le7CsYAlRwGV8nf-63" value="본인 학교가 있는가?" style="rhombus;whiteSpace=wrap;html=1;" vertex="1" parent="1">
          <mxGeometry x="535" y="480" width="155" height="50" as="geometry" />
        </mxCell>
        <mxCell id="S4B36le7CsYAlRwGV8nf-68" value="" style="edgeStyle=orthogonalEdgeStyle;rounded=0;orthogonalLoop=1;jettySize=auto;html=1;" edge="1" parent="1" source="S4B36le7CsYAlRwGV8nf-63" target="S4B36le7CsYAlRwGV8nf-67">
          <mxGeometry relative="1" as="geometry">
            <mxPoint x="613" y="530" as="sourcePoint" />
            <mxPoint x="488" y="590" as="targetPoint" />
          </mxGeometry>
        </mxCell>
        <mxCell id="S4B36le7CsYAlRwGV8nf-67" value="&amp;nbsp;있음" style="ellipse;whiteSpace=wrap;html=1;" vertex="1" parent="1">
          <mxGeometry x="472.5" y="550" width="40" height="40" as="geometry" />
        </mxCell>
        <mxCell id="S4B36le7CsYAlRwGV8nf-71" value="" style="edgeStyle=orthogonalEdgeStyle;rounded=0;orthogonalLoop=1;jettySize=auto;html=1;entryX=0.5;entryY=0;entryDx=0;entryDy=0;" edge="1" parent="1" source="S4B36le7CsYAlRwGV8nf-63" target="S4B36le7CsYAlRwGV8nf-70">
          <mxGeometry relative="1" as="geometry">
            <mxPoint x="613" y="530" as="sourcePoint" />
            <mxPoint x="738" y="590" as="targetPoint" />
          </mxGeometry>
        </mxCell>
        <mxCell id="S4B36le7CsYAlRwGV8nf-70" value="없음" style="ellipse;whiteSpace=wrap;html=1;" vertex="1" parent="1">
          <mxGeometry x="712.5" y="550" width="40" height="40" as="geometry" />
        </mxCell>
        <mxCell id="S4B36le7CsYAlRwGV8nf-75" value="" style="shape=tableRow;horizontal=0;startSize=0;swimlaneHead=0;swimlaneBody=0;strokeColor=inherit;top=0;left=0;bottom=0;right=0;collapsible=0;dropTarget=0;fillColor=none;points=[[0,0.5],[1,0.5]];portConstraint=eastwest;fontSize=10;" vertex="1" parent="1">
          <mxGeometry x="642.5" y="790" width="180" height="40" as="geometry" />
        </mxCell>
        <mxCell id="S4B36le7CsYAlRwGV8nf-86" value="" style="edgeStyle=orthogonalEdgeStyle;rounded=0;orthogonalLoop=1;jettySize=auto;html=1;entryX=0.028;entryY=0.581;entryDx=0;entryDy=0;entryPerimeter=0;" edge="1" parent="1" source="S4B36le7CsYAlRwGV8nf-4" target="S4B36le7CsYAlRwGV8nf-85">
          <mxGeometry relative="1" as="geometry">
            <mxPoint x="220" y="227" as="sourcePoint" />
            <mxPoint x="383" y="263" as="targetPoint" />
          </mxGeometry>
        </mxCell>
        <mxCell id="S4B36le7CsYAlRwGV8nf-85" value="학교명" style="rounded=1;whiteSpace=wrap;html=1;" vertex="1" parent="1">
          <mxGeometry x="270" y="210" width="50" height="30" as="geometry" />
        </mxCell>
        <mxCell id="S4B36le7CsYAlRwGV8nf-88" value="해당 포트 오픈 (ex. 2002)" style="swimlane;whiteSpace=wrap;html=1;" vertex="1" parent="1">
          <mxGeometry x="920" y="340" width="630" height="260" as="geometry" />
        </mxCell>
        <mxCell id="S4B36le7CsYAlRwGV8nf-93" value="유저 2" style="shape=umlActor;verticalLabelPosition=bottom;verticalAlign=top;html=1;outlineConnect=0;" vertex="1" parent="S4B36le7CsYAlRwGV8nf-88">
          <mxGeometry x="135.5" y="70" width="30" height="60" as="geometry" />
        </mxCell>
        <mxCell id="S4B36le7CsYAlRwGV8nf-193" value="미러 내 유저" style="shape=table;startSize=30;container=1;collapsible=0;childLayout=tableLayout;strokeColor=default;fontSize=16;" vertex="1" parent="S4B36le7CsYAlRwGV8nf-88">
          <mxGeometry x="210" y="70" width="90" height="150" as="geometry" />
        </mxCell>
        <mxCell id="S4B36le7CsYAlRwGV8nf-194" value="" style="shape=tableRow;horizontal=0;startSize=0;swimlaneHead=0;swimlaneBody=0;strokeColor=inherit;top=0;left=0;bottom=0;right=0;collapsible=0;dropTarget=0;fillColor=none;points=[[0,0.5],[1,0.5]];portConstraint=eastwest;fontSize=16;" vertex="1" parent="S4B36le7CsYAlRwGV8nf-193">
          <mxGeometry y="30" width="90" height="40" as="geometry" />
        </mxCell>
        <mxCell id="S4B36le7CsYAlRwGV8nf-195" value="이름" style="shape=partialRectangle;html=1;whiteSpace=wrap;connectable=0;strokeColor=inherit;overflow=hidden;fillColor=none;top=0;left=0;bottom=0;right=0;pointerEvents=1;fontSize=16;" vertex="1" parent="S4B36le7CsYAlRwGV8nf-194">
          <mxGeometry width="90" height="40" as="geometry">
            <mxRectangle width="90" height="40" as="alternateBounds" />
          </mxGeometry>
        </mxCell>
        <mxCell id="S4B36le7CsYAlRwGV8nf-198" value="" style="shape=tableRow;horizontal=0;startSize=0;swimlaneHead=0;swimlaneBody=0;strokeColor=inherit;top=0;left=0;bottom=0;right=0;collapsible=0;dropTarget=0;fillColor=none;points=[[0,0.5],[1,0.5]];portConstraint=eastwest;fontSize=16;" vertex="1" parent="S4B36le7CsYAlRwGV8nf-193">
          <mxGeometry y="70" width="90" height="40" as="geometry" />
        </mxCell>
        <mxCell id="S4B36le7CsYAlRwGV8nf-199" value="유저 1" style="shape=partialRectangle;html=1;whiteSpace=wrap;connectable=0;strokeColor=inherit;overflow=hidden;fillColor=none;top=0;left=0;bottom=0;right=0;pointerEvents=1;fontSize=16;" vertex="1" parent="S4B36le7CsYAlRwGV8nf-198">
          <mxGeometry width="90" height="40" as="geometry">
            <mxRectangle width="90" height="40" as="alternateBounds" />
          </mxGeometry>
        </mxCell>
        <mxCell id="S4B36le7CsYAlRwGV8nf-202" value="" style="shape=tableRow;horizontal=0;startSize=0;swimlaneHead=0;swimlaneBody=0;strokeColor=inherit;top=0;left=0;bottom=0;right=0;collapsible=0;dropTarget=0;fillColor=none;points=[[0,0.5],[1,0.5]];portConstraint=eastwest;fontSize=16;" vertex="1" parent="S4B36le7CsYAlRwGV8nf-193">
          <mxGeometry y="110" width="90" height="40" as="geometry" />
        </mxCell>
        <mxCell id="S4B36le7CsYAlRwGV8nf-203" value="유저 2" style="shape=partialRectangle;html=1;whiteSpace=wrap;connectable=0;strokeColor=inherit;overflow=hidden;fillColor=none;top=0;left=0;bottom=0;right=0;pointerEvents=1;fontSize=16;" vertex="1" parent="S4B36le7CsYAlRwGV8nf-202">
          <mxGeometry width="90" height="40" as="geometry">
            <mxRectangle width="90" height="40" as="alternateBounds" />
          </mxGeometry>
        </mxCell>
        <mxCell id="S4B36le7CsYAlRwGV8nf-89" style="edgeStyle=orthogonalEdgeStyle;rounded=0;orthogonalLoop=1;jettySize=auto;html=1;entryX=0;entryY=0.75;entryDx=0;entryDy=0;" edge="1" parent="1" source="S4B36le7CsYAlRwGV8nf-79" target="S4B36le7CsYAlRwGV8nf-88">
          <mxGeometry relative="1" as="geometry" />
        </mxCell>
        <mxCell id="S4B36le7CsYAlRwGV8nf-91" value="유저 1" style="shape=umlActor;verticalLabelPosition=bottom;verticalAlign=top;html=1;outlineConnect=0;" vertex="1" parent="1">
          <mxGeometry x="990" y="410" width="30" height="60" as="geometry" />
        </mxCell>
        <mxCell id="S4B36le7CsYAlRwGV8nf-102" value="접속자 정보" style="shape=table;startSize=30;container=1;collapsible=0;childLayout=tableLayout;strokeColor=default;fontSize=16;" vertex="1" parent="1">
          <mxGeometry x="720" y="102.5" width="174" height="157.5" as="geometry" />
        </mxCell>
        <mxCell id="S4B36le7CsYAlRwGV8nf-127" style="shape=tableRow;horizontal=0;startSize=0;swimlaneHead=0;swimlaneBody=0;strokeColor=inherit;top=0;left=0;bottom=0;right=0;collapsible=0;dropTarget=0;fillColor=none;points=[[0,0.5],[1,0.5]];portConstraint=eastwest;fontSize=16;" vertex="1" parent="S4B36le7CsYAlRwGV8nf-102">
          <mxGeometry y="30" width="174" height="26" as="geometry" />
        </mxCell>
        <mxCell id="S4B36le7CsYAlRwGV8nf-128" value="이름" style="shape=partialRectangle;html=1;whiteSpace=wrap;connectable=0;strokeColor=inherit;overflow=hidden;fillColor=none;top=0;left=0;bottom=0;right=0;pointerEvents=1;fontSize=16;" vertex="1" parent="S4B36le7CsYAlRwGV8nf-127">
          <mxGeometry width="87" height="26" as="geometry">
            <mxRectangle width="87" height="26" as="alternateBounds" />
          </mxGeometry>
        </mxCell>
        <mxCell id="S4B36le7CsYAlRwGV8nf-129" value="포트" style="shape=partialRectangle;html=1;whiteSpace=wrap;connectable=0;strokeColor=inherit;overflow=hidden;fillColor=none;top=0;left=0;bottom=0;right=0;pointerEvents=1;fontSize=16;" vertex="1" parent="S4B36le7CsYAlRwGV8nf-127">
          <mxGeometry x="87" width="87" height="26" as="geometry">
            <mxRectangle width="87" height="26" as="alternateBounds" />
          </mxGeometry>
        </mxCell>
        <mxCell id="S4B36le7CsYAlRwGV8nf-103" value="" style="shape=tableRow;horizontal=0;startSize=0;swimlaneHead=0;swimlaneBody=0;strokeColor=inherit;top=0;left=0;bottom=0;right=0;collapsible=0;dropTarget=0;fillColor=none;points=[[0,0.5],[1,0.5]];portConstraint=eastwest;fontSize=16;" vertex="1" parent="S4B36le7CsYAlRwGV8nf-102">
          <mxGeometry y="56" width="174" height="25" as="geometry" />
        </mxCell>
        <mxCell id="S4B36le7CsYAlRwGV8nf-123" value="유저 1" style="shape=partialRectangle;html=1;whiteSpace=wrap;connectable=0;strokeColor=inherit;overflow=hidden;fillColor=none;top=0;left=0;bottom=0;right=0;pointerEvents=1;fontSize=16;" vertex="1" parent="S4B36le7CsYAlRwGV8nf-103">
          <mxGeometry width="87" height="25" as="geometry">
            <mxRectangle width="87" height="25" as="alternateBounds" />
          </mxGeometry>
        </mxCell>
        <mxCell id="S4B36le7CsYAlRwGV8nf-104" value="2002" style="shape=partialRectangle;html=1;whiteSpace=wrap;connectable=0;strokeColor=inherit;overflow=hidden;fillColor=none;top=0;left=0;bottom=0;right=0;pointerEvents=1;fontSize=16;" vertex="1" parent="S4B36le7CsYAlRwGV8nf-103">
          <mxGeometry x="87" width="87" height="25" as="geometry">
            <mxRectangle width="87" height="25" as="alternateBounds" />
          </mxGeometry>
        </mxCell>
        <mxCell id="S4B36le7CsYAlRwGV8nf-115" value="" style="shape=tableRow;horizontal=0;startSize=0;swimlaneHead=0;swimlaneBody=0;strokeColor=inherit;top=0;left=0;bottom=0;right=0;collapsible=0;dropTarget=0;fillColor=none;points=[[0,0.5],[1,0.5]];portConstraint=eastwest;fontSize=16;" vertex="1" parent="S4B36le7CsYAlRwGV8nf-102">
          <mxGeometry y="81" width="174" height="26" as="geometry" />
        </mxCell>
        <mxCell id="S4B36le7CsYAlRwGV8nf-124" value="유저 2" style="shape=partialRectangle;html=1;whiteSpace=wrap;connectable=0;strokeColor=inherit;overflow=hidden;fillColor=none;top=0;left=0;bottom=0;right=0;pointerEvents=1;fontSize=16;" vertex="1" parent="S4B36le7CsYAlRwGV8nf-115">
          <mxGeometry width="87" height="26" as="geometry">
            <mxRectangle width="87" height="26" as="alternateBounds" />
          </mxGeometry>
        </mxCell>
        <mxCell id="S4B36le7CsYAlRwGV8nf-116" value="2002" style="shape=partialRectangle;html=1;whiteSpace=wrap;connectable=0;strokeColor=inherit;overflow=hidden;fillColor=none;top=0;left=0;bottom=0;right=0;pointerEvents=1;fontSize=16;" vertex="1" parent="S4B36le7CsYAlRwGV8nf-115">
          <mxGeometry x="87" width="87" height="26" as="geometry">
            <mxRectangle width="87" height="26" as="alternateBounds" />
          </mxGeometry>
        </mxCell>
        <mxCell id="S4B36le7CsYAlRwGV8nf-107" value="" style="shape=tableRow;horizontal=0;startSize=0;swimlaneHead=0;swimlaneBody=0;strokeColor=inherit;top=0;left=0;bottom=0;right=0;collapsible=0;dropTarget=0;fillColor=none;points=[[0,0.5],[1,0.5]];portConstraint=eastwest;fontSize=16;" vertex="1" parent="S4B36le7CsYAlRwGV8nf-102">
          <mxGeometry y="107" width="174" height="25" as="geometry" />
        </mxCell>
        <mxCell id="S4B36le7CsYAlRwGV8nf-125" value="유저 3" style="shape=partialRectangle;html=1;whiteSpace=wrap;connectable=0;strokeColor=inherit;overflow=hidden;fillColor=none;top=0;left=0;bottom=0;right=0;pointerEvents=1;fontSize=16;" vertex="1" parent="S4B36le7CsYAlRwGV8nf-107">
          <mxGeometry width="87" height="25" as="geometry">
            <mxRectangle width="87" height="25" as="alternateBounds" />
          </mxGeometry>
        </mxCell>
        <mxCell id="S4B36le7CsYAlRwGV8nf-108" value="&lt;b style=&quot;background-color: rgb(9, 255, 0);&quot;&gt;2001&lt;/b&gt;" style="shape=partialRectangle;html=1;whiteSpace=wrap;connectable=0;strokeColor=inherit;overflow=hidden;fillColor=none;top=0;left=0;bottom=0;right=0;pointerEvents=1;fontSize=16;" vertex="1" parent="S4B36le7CsYAlRwGV8nf-107">
          <mxGeometry x="87" width="87" height="25" as="geometry">
            <mxRectangle width="87" height="25" as="alternateBounds" />
          </mxGeometry>
        </mxCell>
        <mxCell id="S4B36le7CsYAlRwGV8nf-174" value="" style="shape=tableRow;horizontal=0;startSize=0;swimlaneHead=0;swimlaneBody=0;strokeColor=inherit;top=0;left=0;bottom=0;right=0;collapsible=0;dropTarget=0;fillColor=none;points=[[0,0.5],[1,0.5]];portConstraint=eastwest;fontSize=16;" vertex="1" parent="S4B36le7CsYAlRwGV8nf-102">
          <mxGeometry y="132" width="174" height="26" as="geometry" />
        </mxCell>
        <mxCell id="S4B36le7CsYAlRwGV8nf-175" value="유저 4" style="shape=partialRectangle;html=1;whiteSpace=wrap;connectable=0;strokeColor=inherit;overflow=hidden;fillColor=none;top=0;left=0;bottom=0;right=0;pointerEvents=1;fontSize=16;" vertex="1" parent="S4B36le7CsYAlRwGV8nf-174">
          <mxGeometry width="87" height="26" as="geometry">
            <mxRectangle width="87" height="26" as="alternateBounds" />
          </mxGeometry>
        </mxCell>
        <mxCell id="S4B36le7CsYAlRwGV8nf-176" value="2000" style="shape=partialRectangle;html=1;whiteSpace=wrap;connectable=0;strokeColor=inherit;overflow=hidden;fillColor=none;top=0;left=0;bottom=0;right=0;pointerEvents=1;fontSize=16;" vertex="1" parent="S4B36le7CsYAlRwGV8nf-174">
          <mxGeometry x="87" width="87" height="26" as="geometry">
            <mxRectangle width="87" height="26" as="alternateBounds" />
          </mxGeometry>
        </mxCell>
        <mxCell id="S4B36le7CsYAlRwGV8nf-141" value="유저 1 친구 정보" style="shape=table;startSize=30;container=1;collapsible=0;childLayout=tableLayout;strokeColor=default;fontSize=16;" vertex="1" parent="1">
          <mxGeometry x="940" y="102.5" width="174" height="190" as="geometry" />
        </mxCell>
        <mxCell id="S4B36le7CsYAlRwGV8nf-142" style="shape=tableRow;horizontal=0;startSize=0;swimlaneHead=0;swimlaneBody=0;strokeColor=inherit;top=0;left=0;bottom=0;right=0;collapsible=0;dropTarget=0;fillColor=none;points=[[0,0.5],[1,0.5]];portConstraint=eastwest;fontSize=16;" vertex="1" parent="S4B36le7CsYAlRwGV8nf-141">
          <mxGeometry y="30" width="174" height="40" as="geometry" />
        </mxCell>
        <mxCell id="S4B36le7CsYAlRwGV8nf-143" value="이름" style="shape=partialRectangle;html=1;whiteSpace=wrap;connectable=0;strokeColor=inherit;overflow=hidden;fillColor=none;top=0;left=0;bottom=0;right=0;pointerEvents=1;fontSize=16;" vertex="1" parent="S4B36le7CsYAlRwGV8nf-142">
          <mxGeometry width="87" height="40" as="geometry">
            <mxRectangle width="87" height="40" as="alternateBounds" />
          </mxGeometry>
        </mxCell>
        <mxCell id="S4B36le7CsYAlRwGV8nf-144" value="접속상태" style="shape=partialRectangle;html=1;whiteSpace=wrap;connectable=0;strokeColor=inherit;overflow=hidden;fillColor=none;top=0;left=0;bottom=0;right=0;pointerEvents=1;fontSize=16;" vertex="1" parent="S4B36le7CsYAlRwGV8nf-142">
          <mxGeometry x="87" width="87" height="40" as="geometry">
            <mxRectangle width="87" height="40" as="alternateBounds" />
          </mxGeometry>
        </mxCell>
        <mxCell id="S4B36le7CsYAlRwGV8nf-146" value="" style="shape=tableRow;horizontal=0;startSize=0;swimlaneHead=0;swimlaneBody=0;strokeColor=inherit;top=0;left=0;bottom=0;right=0;collapsible=0;dropTarget=0;fillColor=none;points=[[0,0.5],[1,0.5]];portConstraint=eastwest;fontSize=16;" vertex="1" parent="S4B36le7CsYAlRwGV8nf-141">
          <mxGeometry y="70" width="174" height="40" as="geometry" />
        </mxCell>
        <mxCell id="S4B36le7CsYAlRwGV8nf-147" value="유저 2" style="shape=partialRectangle;html=1;whiteSpace=wrap;connectable=0;strokeColor=inherit;overflow=hidden;fillColor=none;top=0;left=0;bottom=0;right=0;pointerEvents=1;fontSize=16;" vertex="1" parent="S4B36le7CsYAlRwGV8nf-146">
          <mxGeometry width="87" height="40" as="geometry">
            <mxRectangle width="87" height="40" as="alternateBounds" />
          </mxGeometry>
        </mxCell>
        <mxCell id="S4B36le7CsYAlRwGV8nf-148" value="접속중" style="shape=partialRectangle;html=1;whiteSpace=wrap;connectable=0;strokeColor=inherit;overflow=hidden;fillColor=none;top=0;left=0;bottom=0;right=0;pointerEvents=1;fontSize=16;" vertex="1" parent="S4B36le7CsYAlRwGV8nf-146">
          <mxGeometry x="87" width="87" height="40" as="geometry">
            <mxRectangle width="87" height="40" as="alternateBounds" />
          </mxGeometry>
        </mxCell>
        <mxCell id="S4B36le7CsYAlRwGV8nf-150" value="" style="shape=tableRow;horizontal=0;startSize=0;swimlaneHead=0;swimlaneBody=0;strokeColor=inherit;top=0;left=0;bottom=0;right=0;collapsible=0;dropTarget=0;fillColor=none;points=[[0,0.5],[1,0.5]];portConstraint=eastwest;fontSize=16;" vertex="1" parent="S4B36le7CsYAlRwGV8nf-141">
          <mxGeometry y="110" width="174" height="40" as="geometry" />
        </mxCell>
        <mxCell id="S4B36le7CsYAlRwGV8nf-151" value="유저 3" style="shape=partialRectangle;html=1;whiteSpace=wrap;connectable=0;strokeColor=inherit;overflow=hidden;fillColor=none;top=0;left=0;bottom=0;right=0;pointerEvents=1;fontSize=16;" vertex="1" parent="S4B36le7CsYAlRwGV8nf-150">
          <mxGeometry width="87" height="40" as="geometry">
            <mxRectangle width="87" height="40" as="alternateBounds" />
          </mxGeometry>
        </mxCell>
        <mxCell id="S4B36le7CsYAlRwGV8nf-152" value="접속중" style="shape=partialRectangle;html=1;whiteSpace=wrap;connectable=0;strokeColor=inherit;overflow=hidden;fillColor=none;top=0;left=0;bottom=0;right=0;pointerEvents=1;fontSize=16;" vertex="1" parent="S4B36le7CsYAlRwGV8nf-150">
          <mxGeometry x="87" width="87" height="40" as="geometry">
            <mxRectangle width="87" height="40" as="alternateBounds" />
          </mxGeometry>
        </mxCell>
        <mxCell id="S4B36le7CsYAlRwGV8nf-154" value="" style="shape=tableRow;horizontal=0;startSize=0;swimlaneHead=0;swimlaneBody=0;strokeColor=inherit;top=0;left=0;bottom=0;right=0;collapsible=0;dropTarget=0;fillColor=none;points=[[0,0.5],[1,0.5]];portConstraint=eastwest;fontSize=16;" vertex="1" parent="S4B36le7CsYAlRwGV8nf-141">
          <mxGeometry y="150" width="174" height="40" as="geometry" />
        </mxCell>
        <mxCell id="S4B36le7CsYAlRwGV8nf-155" value="유저 5" style="shape=partialRectangle;html=1;whiteSpace=wrap;connectable=0;strokeColor=inherit;overflow=hidden;fillColor=none;top=0;left=0;bottom=0;right=0;pointerEvents=1;fontSize=16;" vertex="1" parent="S4B36le7CsYAlRwGV8nf-154">
          <mxGeometry width="87" height="40" as="geometry">
            <mxRectangle width="87" height="40" as="alternateBounds" />
          </mxGeometry>
        </mxCell>
        <mxCell id="S4B36le7CsYAlRwGV8nf-156" value="로그아웃" style="shape=partialRectangle;html=1;whiteSpace=wrap;connectable=0;strokeColor=inherit;overflow=hidden;fillColor=none;top=0;left=0;bottom=0;right=0;pointerEvents=1;fontSize=16;" vertex="1" parent="S4B36le7CsYAlRwGV8nf-154">
          <mxGeometry x="87" width="87" height="40" as="geometry">
            <mxRectangle width="87" height="40" as="alternateBounds" />
          </mxGeometry>
        </mxCell>
        <mxCell id="S4B36le7CsYAlRwGV8nf-159" value="유저 1" style="shape=umlActor;verticalLabelPosition=bottom;verticalAlign=top;html=1;outlineConnect=0;" vertex="1" parent="1">
          <mxGeometry x="20" y="222.5" width="30" height="60" as="geometry" />
        </mxCell>
        <mxCell id="S4B36le7CsYAlRwGV8nf-177" value="해당 포트 오픈 (ex. 2001)" style="swimlane;whiteSpace=wrap;html=1;" vertex="1" parent="1">
          <mxGeometry x="920" y="640" width="630" height="260" as="geometry" />
        </mxCell>
        <mxCell id="S4B36le7CsYAlRwGV8nf-178" value="유저 3" style="shape=umlActor;verticalLabelPosition=bottom;verticalAlign=top;html=1;outlineConnect=0;" vertex="1" parent="S4B36le7CsYAlRwGV8nf-177">
          <mxGeometry x="70" y="106" width="30" height="60" as="geometry" />
        </mxCell>
        <mxCell id="S4B36le7CsYAlRwGV8nf-222" value="미러 내 유저" style="shape=table;startSize=30;container=1;collapsible=0;childLayout=tableLayout;strokeColor=default;fontSize=16;" vertex="1" parent="S4B36le7CsYAlRwGV8nf-177">
          <mxGeometry x="211" y="81" width="90" height="110" as="geometry" />
        </mxCell>
        <mxCell id="S4B36le7CsYAlRwGV8nf-223" value="" style="shape=tableRow;horizontal=0;startSize=0;swimlaneHead=0;swimlaneBody=0;strokeColor=inherit;top=0;left=0;bottom=0;right=0;collapsible=0;dropTarget=0;fillColor=none;points=[[0,0.5],[1,0.5]];portConstraint=eastwest;fontSize=16;" vertex="1" parent="S4B36le7CsYAlRwGV8nf-222">
          <mxGeometry y="30" width="90" height="40" as="geometry" />
        </mxCell>
        <mxCell id="S4B36le7CsYAlRwGV8nf-224" value="이름" style="shape=partialRectangle;html=1;whiteSpace=wrap;connectable=0;strokeColor=inherit;overflow=hidden;fillColor=none;top=0;left=0;bottom=0;right=0;pointerEvents=1;fontSize=16;" vertex="1" parent="S4B36le7CsYAlRwGV8nf-223">
          <mxGeometry width="90" height="40" as="geometry">
            <mxRectangle width="90" height="40" as="alternateBounds" />
          </mxGeometry>
        </mxCell>
        <mxCell id="S4B36le7CsYAlRwGV8nf-225" value="" style="shape=tableRow;horizontal=0;startSize=0;swimlaneHead=0;swimlaneBody=0;strokeColor=inherit;top=0;left=0;bottom=0;right=0;collapsible=0;dropTarget=0;fillColor=none;points=[[0,0.5],[1,0.5]];portConstraint=eastwest;fontSize=16;" vertex="1" parent="S4B36le7CsYAlRwGV8nf-222">
          <mxGeometry y="70" width="90" height="40" as="geometry" />
        </mxCell>
        <mxCell id="S4B36le7CsYAlRwGV8nf-226" value="유저 3" style="shape=partialRectangle;html=1;whiteSpace=wrap;connectable=0;strokeColor=inherit;overflow=hidden;fillColor=none;top=0;left=0;bottom=0;right=0;pointerEvents=1;fontSize=16;" vertex="1" parent="S4B36le7CsYAlRwGV8nf-225">
          <mxGeometry width="90" height="40" as="geometry">
            <mxRectangle width="90" height="40" as="alternateBounds" />
          </mxGeometry>
        </mxCell>
        <mxCell id="S4B36le7CsYAlRwGV8nf-215" style="edgeStyle=orthogonalEdgeStyle;rounded=0;orthogonalLoop=1;jettySize=auto;html=1;entryX=0;entryY=0;entryDx=35;entryDy=0;entryPerimeter=0;" edge="1" parent="1" source="S4B36le7CsYAlRwGV8nf-216" target="S4B36le7CsYAlRwGV8nf-7">
          <mxGeometry relative="1" as="geometry">
            <Array as="points">
              <mxPoint x="415" y="40" />
            </Array>
          </mxGeometry>
        </mxCell>
        <mxCell id="S4B36le7CsYAlRwGV8nf-216" value="초대하기" style="rounded=1;whiteSpace=wrap;html=1;" vertex="1" parent="1">
          <mxGeometry x="1170" y="202.5" width="120" height="60" as="geometry" />
        </mxCell>
        <mxCell id="S4B36le7CsYAlRwGV8nf-221" style="edgeStyle=orthogonalEdgeStyle;rounded=0;orthogonalLoop=1;jettySize=auto;html=1;entryX=0;entryY=0.5;entryDx=0;entryDy=0;" edge="1" parent="1" source="S4B36le7CsYAlRwGV8nf-150" target="S4B36le7CsYAlRwGV8nf-216">
          <mxGeometry relative="1" as="geometry" />
        </mxCell>
        <mxCell id="S4B36le7CsYAlRwGV8nf-230" value="" style="shape=table;startSize=0;container=1;collapsible=0;childLayout=tableLayout;fontSize=12;" vertex="1" parent="1">
          <mxGeometry x="920" y="950" width="210" height="20" as="geometry" />
        </mxCell>
        <mxCell id="S4B36le7CsYAlRwGV8nf-231" value="" style="shape=tableRow;horizontal=0;startSize=0;swimlaneHead=0;swimlaneBody=0;strokeColor=inherit;top=0;left=0;bottom=0;right=0;collapsible=0;dropTarget=0;fillColor=none;points=[[0,0.5],[1,0.5]];portConstraint=eastwest;fontSize=16;" vertex="1" parent="S4B36le7CsYAlRwGV8nf-230">
          <mxGeometry width="210" height="20" as="geometry" />
        </mxCell>
        <mxCell id="S4B36le7CsYAlRwGV8nf-232" value="대기열 1" style="shape=partialRectangle;html=1;whiteSpace=wrap;connectable=0;strokeColor=inherit;overflow=hidden;fillColor=none;top=0;left=0;bottom=0;right=0;pointerEvents=1;fontSize=11;" vertex="1" parent="S4B36le7CsYAlRwGV8nf-231">
          <mxGeometry width="70" height="20" as="geometry">
            <mxRectangle width="70" height="20" as="alternateBounds" />
          </mxGeometry>
        </mxCell>
        <mxCell id="S4B36le7CsYAlRwGV8nf-233" value="" style="shape=partialRectangle;html=1;whiteSpace=wrap;connectable=0;strokeColor=inherit;overflow=hidden;fillColor=none;top=0;left=0;bottom=0;right=0;pointerEvents=1;fontSize=16;" vertex="1" parent="S4B36le7CsYAlRwGV8nf-231">
          <mxGeometry x="70" width="70" height="20" as="geometry">
            <mxRectangle width="70" height="20" as="alternateBounds" />
          </mxGeometry>
        </mxCell>
        <mxCell id="S4B36le7CsYAlRwGV8nf-234" value="" style="shape=partialRectangle;html=1;whiteSpace=wrap;connectable=0;strokeColor=inherit;overflow=hidden;fillColor=none;top=0;left=0;bottom=0;right=0;pointerEvents=1;fontSize=16;" vertex="1" parent="S4B36le7CsYAlRwGV8nf-231">
          <mxGeometry x="140" width="70" height="20" as="geometry">
            <mxRectangle width="70" height="20" as="alternateBounds" />
          </mxGeometry>
        </mxCell>
      </root>
    </mxGraphModel>
  </diagram>
</mxfile>
